<svg xmlns="http://www.w3.org/2000/svg" width="50.8mm" height="33.86668mm" viewBox="0 0 144 96.00003">
  <defs>
    <style>
      .cls-1 {
        fill: #999899;
      }

      .cls-2 {
        fill: #fff;
      }
    </style>
  </defs>
  <g id="レイヤー_2" data-name="レイヤー 2">
    <g id="レイヤー_1-2" data-name="レイヤー 1">
      <polygon class="cls-1" points="96 48 96 0 48 0 48 48 0 48 0 96 48 96 96 96 144 96 144 48 96 48"/>
      <polygon class="cls-2" points="71.91 10.225 59.485 22.65 67.723 22.65 67.723 37.775 76.277 37.775 76.277 22.65 84.515 22.65 71.91 10.225"/>
      <polygon class="cls-2" points="76.277 73.351 76.277 58.225 67.723 58.225 67.723 73.351 59.485 73.351 72.09 85.775 84.515 73.351 76.277 73.351"/>
      <polygon class="cls-2" points="134.819 72.954 122.394 60.529 122.394 68.767 107.268 68.767 107.268 77.32 122.394 77.32 122.394 85.558 134.819 72.954"/>
      <polygon class="cls-2" points="21.606 68.767 21.606 60.529 9.181 73.134 21.606 85.558 21.606 77.32 36.732 77.32 36.732 68.767 21.606 68.767"/>
    </g>
  </g>
</svg>
